<svg width="22" height="22" viewBox="0 0 40 40" fill="none" xmlns="http://www.w3.org/2000/svg">
<path fill-rule="evenodd" clip-rule="evenodd" d="M2.48317 0.114246C0.478325 0.662233 -0.542684 2.79473 0.292853 4.68928C0.530106 5.22723 1.86128 6.62282 7.91012 12.6751L15.2398 20.0089L7.91012 27.3428C-0.101047 35.3585 0.00590597 35.2316 0.00486252 36.717C0.00342779 38.5502 1.4546 39.991 3.30853 39.9971C4.76909 40.002 4.66031 40.0937 12.6669 32.0978L20.0036 24.7709L27.3403 32.0978C35.3591 40.1059 35.2322 39.999 36.7181 40C38.552 40.0014 39.9934 38.5508 39.9995 36.6976C40.0043 35.2376 40.0962 35.3463 32.0971 27.3428L24.7675 20.0089L32.0971 12.6751C40.0962 4.67155 40.0043 4.78029 39.9995 3.32029C39.9934 1.46707 38.552 0.0164598 36.7181 0.0178939C35.2322 0.018937 35.3591 -0.0879745 27.3403 7.9201L20.0036 15.2469L12.6669 7.9201C4.99291 0.25636 4.91987 0.192473 3.63461 0.0145039C3.34766 -0.025262 2.82959 0.0195897 2.48317 0.114246Z" fill="currentColor"/>
</svg>
