<svg width="31" height="35" viewBox="0 0 31 35" fill="none" xmlns="http://www.w3.org/2000/svg">
<path fill-rule="evenodd" clip-rule="evenodd" d="M12.541 0.116091C6.60494 0.596014 1.60545 2.72507 0.289406 5.33363C-0.0565692 6.01931 -0.0894783 7.04703 0.213694 7.70074C1.39143 10.2411 5.84598 12.2702 11.7882 12.973C13.4967 13.1751 17.8827 13.1458 19.6212 12.9206C24.3041 12.3143 27.9275 10.9294 29.8143 9.02493C32.0466 6.77159 31.0932 4.30123 27.239 2.35254C23.616 0.520594 18.0375 -0.32814 12.541 0.116091ZM0.0130131 12.3351C0.013981 14.5214 0.0237678 14.626 0.278006 15.1653C1.2243 17.173 4.55812 18.9644 9.00924 19.8569C12.8679 20.6307 18.1212 20.6309 21.9879 19.8575C26.3319 18.9886 29.6702 17.2236 30.6563 15.2747L30.9852 14.6246V12.3447C30.9852 10.1467 30.9781 10.0701 30.7868 10.2106C30.6776 10.2908 30.2541 10.6086 29.8457 10.917C27.809 12.4546 24.0934 13.7704 20.3381 14.284C13.0943 15.2747 5.11672 13.8721 1.15139 10.9108C0.743035 10.6059 0.319519 10.2908 0.21036 10.2106C0.0190356 10.0701 0.0119376 10.1463 0.0130131 12.3351ZM0.032909 19.8193C0.0706577 22.4977 0.0851763 22.551 1.06298 23.5943C2.78082 25.4269 6.24616 26.8064 10.8203 27.4785C11.8482 27.6295 12.8003 27.6682 15.4986 27.6682C18.1968 27.6682 19.1489 27.6295 20.1768 27.4785C25.6493 26.6744 29.6378 24.7889 30.7191 22.4948C30.9727 21.9568 30.9831 21.8476 30.9841 19.7172L30.9852 17.4994L30.5043 17.9373C28.9829 19.3224 26.0092 20.5693 22.6261 21.2407C20.3483 21.6925 18.2455 21.8817 15.4986 21.8817C12.7516 21.8817 10.6488 21.6925 8.37106 21.2407C4.9426 20.5603 2.07585 19.3435 0.419537 17.8655L0 17.4911L0.032909 19.8193ZM0.0119376 27.1061C0.0119376 29.2013 0.021079 29.2937 0.277791 29.8012C0.856496 30.9448 1.92023 31.8426 3.79562 32.7699C5.79565 33.759 8.46903 34.4925 11.4118 34.8596C12.9044 35.0458 18.0762 35.0471 19.5853 34.8617C23.6494 34.3624 27.0392 33.2042 29.1766 31.5849C29.9194 31.022 30.3685 30.5006 30.7224 29.7897C30.984 29.2644 30.9892 29.2067 30.9606 27.1014L30.9314 24.9499L30.1786 25.5438C28.1342 27.1567 24.6586 28.3521 20.2306 28.9652C18.3113 29.231 12.6866 29.231 10.7665 28.9653C6.50212 28.3751 3.0799 27.2301 1.06535 25.7196C0.704534 25.4492 0.319949 25.1623 0.210683 25.0821C0.0190356 24.9415 0.0119376 25.0142 0.0119376 27.1061Z" fill="currentColor"/>
</svg>
