<svg width="25" height="auto" viewBox="0 0 15 14" fill="none" xmlns="http://www.w3.org/2000/svg">
<path d="M11.2043 0C12.21 0 13.1775 0.412222 13.8892 1.15189C14.6017 1.89 15 2.88556 15 3.92778V10.0722C15 12.2422 13.2975 14 11.2043 14H3.795C1.70175 14 0 12.2422 0 10.0722V3.92778C0 1.75778 1.69425 0 3.795 0H11.2043ZM12.0525 4.04444C11.895 4.03589 11.745 4.09111 11.6318 4.2L8.25 7C7.815 7.37411 7.19175 7.37411 6.75 7L3.375 4.2C3.14175 4.02111 2.81925 4.04444 2.625 4.25444C2.4225 4.46444 2.4 4.79889 2.57175 5.03222L2.67 5.13333L6.0825 7.89444C6.5025 8.23667 7.01175 8.42333 7.545 8.42333C8.07675 8.42333 8.595 8.23667 9.01425 7.89444L12.3975 5.08667L12.4575 5.02444C12.6368 4.79889 12.6368 4.47222 12.4493 4.24667C12.345 4.13078 12.2017 4.06 12.0525 4.04444Z" fill="currentColor"/>
</svg>
