<svg width="25" height="auto" viewBox="0 0 14 14" fill="none" xmlns="http://www.w3.org/2000/svg">
<path fill-rule="evenodd" clip-rule="evenodd" d="M5.96961 0.0478062C5.05716 0.194873 4.4534 0.381017 3.72614 0.7394C1.91098 1.63392 0.645208 3.26874 0.139249 5.37204C-0.0471492 6.14676 -0.0462366 7.95724 0.140922 8.77314C0.624294 10.8802 1.9703 12.6458 3.80219 13.5759C4.48732 13.9237 4.86437 14.0466 5.05579 13.9846C5.19915 13.9381 5.20911 13.8693 5.20911 12.9274V11.92L4.83259 11.9711C4.31826 12.0408 3.50293 11.8746 3.23683 11.6459C3.12033 11.5457 2.921 11.2443 2.79384 10.976C2.65558 10.6841 2.39298 10.3189 2.14027 10.0671C1.90794 9.83547 1.73538 9.61692 1.75683 9.5815C1.83379 9.45432 2.3618 9.52067 2.6387 9.69221C2.79354 9.78815 3.05872 10.0564 3.22801 10.2884C3.6561 10.875 3.85497 10.992 4.42465 10.9926C4.98925 10.9932 5.28516 10.8928 5.28516 10.7007C5.28516 10.6232 5.3536 10.4227 5.43726 10.2551C5.52091 10.0874 5.58936 9.94501 5.58936 9.93856C5.58936 9.93211 5.32843 9.88379 5.00948 9.83119C4.16533 9.69213 3.26976 9.20828 2.98975 8.74012C2.69772 8.25176 2.54257 7.57788 2.53368 6.75903C2.52569 6.02113 2.61231 5.69647 2.94419 5.22031C3.09949 4.99757 3.11432 4.90038 3.09097 4.2582C3.07553 3.83355 3.10238 3.42824 3.15721 3.25864L3.24938 2.97329L3.65381 3.00763C3.95786 3.03334 4.20723 3.13022 4.65729 3.3974L5.25626 3.75291L5.66754 3.64391C6.21677 3.49832 7.8542 3.50119 8.39658 3.64865C8.78124 3.75322 8.82178 3.75073 9.01578 3.60957C9.43405 3.30533 10.1898 2.99124 10.5037 2.99116C10.8089 2.99108 10.8191 2.99963 10.8982 3.32126C11.0486 3.93214 11.0545 4.01355 10.982 4.47371C10.9113 4.9219 10.9157 4.94125 11.1715 5.32123C11.5567 5.89318 11.6222 6.16719 11.5784 7.02302C11.5127 8.30544 11.1354 9.0083 10.2827 9.43668C10.0228 9.5672 9.51923 9.72965 9.1637 9.79763C8.80816 9.86561 8.50632 9.9318 8.49294 9.9447C8.47955 9.95759 8.54511 10.12 8.63865 10.3058C8.79478 10.616 8.81151 10.7782 8.84414 12.2955C8.87889 13.9142 8.883 13.9484 9.04552 13.9901C9.29914 14.0551 10.1655 13.6862 10.8858 13.2066C12.3573 12.2268 13.3505 10.8003 13.8138 9.00162C14.0598 8.04658 14.0625 6.1358 13.8192 5.2287C12.9914 2.14193 10.3837 0.111123 7.11035 0.00398919C6.71299 -0.00898499 6.19966 0.0107482 5.96961 0.0478062ZM3.00366 10.4836C3.00366 10.5501 3.03789 10.6047 3.07971 10.6047C3.12154 10.6047 3.15576 10.5718 3.15576 10.5316C3.15576 10.4913 3.12154 10.4369 3.07971 10.4104C3.03789 10.384 3.00366 10.417 3.00366 10.4836ZM3.34589 10.9154C3.37175 10.9582 3.42506 10.9931 3.46445 10.9931C3.50384 10.9931 3.53601 10.9582 3.53601 10.9154C3.53601 10.8727 3.48263 10.8377 3.41745 10.8377C3.35228 10.8377 3.32003 10.8727 3.34589 10.9154ZM3.84021 11.2262C3.84021 11.2689 3.8936 11.3039 3.95877 11.3039C4.02395 11.3039 4.05619 11.2689 4.03034 11.2262C4.00448 11.1835 3.95117 11.1485 3.91177 11.1485C3.87238 11.1485 3.84021 11.1835 3.84021 11.2262ZM4.94293 11.2262C4.91708 11.2689 4.94932 11.3039 5.0145 11.3039C5.07967 11.3039 5.13306 11.2689 5.13306 11.2262C5.13306 11.1835 5.10089 11.1485 5.0615 11.1485C5.0221 11.1485 4.96879 11.1835 4.94293 11.2262ZM4.37256 11.3039C4.37256 11.3466 4.42389 11.3816 4.48664 11.3816C4.54938 11.3816 4.60071 11.3466 4.60071 11.3039C4.60071 11.2611 4.54938 11.2262 4.48664 11.2262C4.42389 11.2262 4.37256 11.2611 4.37256 11.3039Z" fill="currentColor"/>
</svg>
