<svg width="25" height="auto" viewBox="0 0 16 14" fill="none" xmlns="http://www.w3.org/2000/svg">
<path fill-rule="evenodd" clip-rule="evenodd" d="M0.690926 0.0877283C0.497851 0.136168 0.303243 0.270397 0.18826 0.434474C0.00629947 0.694096 0.000550349 0.894024 0.000262892 6.98021C-0.000120384 13.9129 -0.0277163 13.601 0.609001 13.8639C0.905273 13.9862 1.66426 14.0002 8.01523 14C14.5606 13.9999 15.1164 13.989 15.4254 13.8541C15.6091 13.774 15.8133 13.6146 15.8791 13.4999C15.9717 13.3389 15.9991 11.862 15.9999 6.99688C16.0009 0.908279 15.9949 0.693596 15.8146 0.436392C15.6895 0.257808 15.5089 0.14167 15.264 0.0825592C14.795 -0.0307439 1.14377 -0.0259083 0.690926 0.0877283ZM4.30723 2.1176C4.95775 2.41032 5.21272 3.27689 4.81344 3.83807C4.03635 4.93008 2.06305 4.35014 2.24703 3.0838C2.31218 2.63492 2.49807 2.3728 2.90358 2.15761C3.27009 1.96319 3.92281 1.9446 4.30723 2.1176ZM12.3126 5.36137C12.9441 5.62115 13.2749 5.9418 13.5325 6.54384C13.7299 7.00514 13.7466 7.20631 13.7786 9.5189L13.8128 11.9992H12.5545H11.2961L11.312 9.97745C11.3304 7.64619 11.2765 7.38273 10.7316 7.1382C10.2437 6.91918 9.56166 6.98596 9.19917 7.2881C8.79626 7.62401 8.71941 8.08548 8.71941 10.1691V11.9992H7.52062H6.32173L6.34683 8.64349L6.37184 5.28775H7.47376H8.57568L8.6051 5.64208C8.62139 5.83701 8.6624 5.99641 8.69641 5.99641C8.73043 5.99641 8.89064 5.88469 9.05247 5.74821C9.5835 5.30042 10.0151 5.16961 10.9712 5.16686C11.6827 5.16477 11.9174 5.19879 12.3126 5.36137ZM4.73506 5.29667C4.86978 5.34161 4.88665 5.71728 4.88665 8.67325V11.9992H3.641H2.39535V8.67125C2.39535 6.08696 2.42209 5.33394 2.51513 5.30125C2.68808 5.24056 4.5554 5.23664 4.73506 5.29667Z" fill="currentColor"/>
</svg>
