<svg width="27" height="38" viewBox="0 0 27 38" fill="none" xmlns="http://www.w3.org/2000/svg">
<path fill-rule="evenodd" clip-rule="evenodd" d="M2.55909 0.176586C1.54488 0.440747 0.450392 1.50991 0.173902 2.50693C0.0262356 3.03922 -0.0259903 8.50073 0.011899 19.4679L0.0678113 35.6439L0.612804 36.4429C1.70504 38.0446 1.33578 37.9999 13.4827 37.9999C23.9226 37.9999 24.2589 37.9879 25.0543 37.592C25.6587 37.2913 26.0212 36.9039 26.4368 36.1154L27 35.0464V19.0177V2.98893L26.4368 1.91997C26.0212 1.13146 25.6587 0.744065 25.0543 0.443331C24.2625 0.0491767 23.8859 0.034468 13.7899 0.00365917C7.16419 -0.0164163 3.05739 0.0467913 2.55909 0.176586ZM16.7946 32.4652C17.261 32.8749 17.278 33.6779 16.8303 34.1579C16.5315 34.4783 16.1384 34.5215 13.5183 34.5215C11.0394 34.5215 10.4831 34.4668 10.1708 34.1925C9.70442 33.7828 9.68742 32.9798 10.1351 32.4998C10.4339 32.1794 10.827 32.1363 13.4471 32.1363C15.9261 32.1363 16.4823 32.1909 16.7946 32.4652Z" fill="currentColor"/>
</svg>
