<svg width="25" height="21" viewBox="0 0 25 21" fill="none" xmlns="http://www.w3.org/2000/svg">
<path d="M17.3611 0H7.63889C6.48872 0 5.55121 0.894141 5.59462 1.97695C5.6033 2.19434 5.61198 2.41172 5.625 2.625H1.04167C0.46441 2.625 0 3.06387 0 3.60938C0 7.40742 1.45399 10.0488 3.40712 11.8412C5.32986 13.609 7.67361 14.499 9.40104 14.9502C10.4167 15.2168 11.1111 16.0166 11.1111 16.8205C11.1111 17.6777 10.3733 18.375 9.46615 18.375H8.33333C7.5651 18.375 6.94444 18.9615 6.94444 19.6875C6.94444 20.4135 7.5651 21 8.33333 21H16.6667C17.4349 21 18.0556 20.4135 18.0556 19.6875C18.0556 18.9615 17.4349 18.375 16.6667 18.375H15.5339C14.6267 18.375 13.8889 17.6777 13.8889 16.8205C13.8889 16.0166 14.579 15.2127 15.599 14.9502C17.3307 14.499 19.6745 13.609 21.5972 11.8412C23.546 10.0488 25 7.40742 25 3.60938C25 3.06387 24.5356 2.625 23.9583 2.625H19.375C19.388 2.41172 19.3967 2.19844 19.4054 1.97695C19.4488 0.894141 18.5113 0 17.3611 0ZM2.1224 4.59375H5.78559C6.18056 8.28926 7.05295 10.7584 8.03819 12.4113C6.95746 11.9602 5.83333 11.3244 4.86111 10.4303C3.47222 9.15469 2.34375 7.31309 2.12674 4.59375H2.1224ZM20.1432 10.4303C19.171 11.3244 18.0469 11.9602 16.9661 12.4113C17.9514 10.7584 18.8238 8.28926 19.2187 4.59375H22.8819C22.6606 7.31309 21.5321 9.15469 20.1476 10.4303H20.1432Z" fill="CurrentColor"/>
</svg>
