<svg width="38" height="38" viewBox="0 0 38 38" fill="none" xmlns="http://www.w3.org/2000/svg">
<circle cx="19" cy="19" r="19" fill="#DEEBFE"/>
<path d="M10 18.9999C10 18.6076 10.2907 18.2833 10.6679 18.232L10.7727 18.2249L24.3562 18.2256L19.4489 13.3241C19.1465 13.0221 19.1455 12.5315 19.4466 12.2282C19.7203 11.9524 20.1495 11.9265 20.4525 12.151L20.5394 12.2258L26.7727 18.4503C26.8126 18.4901 26.8472 18.5332 26.8766 18.5787C26.8849 18.5924 26.8933 18.6064 26.9013 18.6207C26.9087 18.633 26.9154 18.6457 26.9216 18.6585C26.9304 18.6772 26.9389 18.6966 26.9466 18.7163C26.9529 18.7315 26.9582 18.7463 26.9629 18.7612C26.9686 18.7797 26.9742 18.7994 26.9789 18.8194C26.9825 18.8334 26.9853 18.8468 26.9877 18.8603C26.9912 18.8804 26.9941 18.9012 26.9962 18.9222C26.998 18.9382 26.9991 18.9541 26.9996 18.97C26.9998 18.9797 27 18.9898 27 18.9999L26.9996 19.0299C26.999 19.0451 26.998 19.0603 26.9965 19.0755L27 18.9999C27 19.0488 26.9955 19.0966 26.9868 19.143C26.9848 19.1541 26.9825 19.1655 26.9798 19.1768C26.9743 19.2001 26.968 19.2226 26.9607 19.2446C26.9571 19.2556 26.9529 19.2673 26.9485 19.2789C26.9394 19.3022 26.9296 19.3244 26.9188 19.3461C26.9138 19.3563 26.9082 19.3669 26.9023 19.3775C26.8926 19.3947 26.8827 19.411 26.8722 19.427C26.8647 19.4383 26.8565 19.45 26.8479 19.4616L26.8413 19.4705C26.8204 19.4978 26.7979 19.5236 26.7737 19.5479L26.7727 19.5486L20.5394 25.7742C20.237 26.0762 19.7478 26.0752 19.4466 25.7719C19.1728 25.4962 19.1488 25.0656 19.3739 24.7627L19.4489 24.6759L24.3542 19.7755L10.7727 19.7749C10.346 19.7749 10 19.4279 10 18.9999Z" fill="#1A75E8"/>
</svg>
