<svg width="20" height="23" viewBox="0 0 20 23" fill="none" xmlns="http://www.w3.org/2000/svg">
<path d="M6.42857 6.46875C6.42857 4.4832 8.02679 2.875 10 2.875C11.4241 2.875 12.6518 3.71055 13.2277 4.92793C13.567 5.64668 14.4196 5.95215 15.1295 5.61074C15.8393 5.26934 16.1473 4.41133 15.808 3.69707C14.7768 1.51387 12.567 0 10 0C6.45089 0 3.57143 2.89746 3.57143 6.46875V8.625H2.85714C1.28125 8.625 0 9.91426 0 11.5V20.125C0 21.7107 1.28125 23 2.85714 23H17.1429C18.7188 23 20 21.7107 20 20.125V11.5C20 9.91426 18.7188 8.625 17.1429 8.625H6.42857V6.46875Z" fill="#1A75E8"/>
</svg>
